<?xml version="1.0" encoding="UTF-8" standalone="no"?>
<!-- Created with Inkscape (http://www.inkscape.org/) -->

<svg
   xmlns:dc="http://purl.org/dc/elements/1.1/"
   xmlns:cc="http://creativecommons.org/ns#"
   xmlns:rdf="http://www.w3.org/1999/02/22-rdf-syntax-ns#"
   xmlns:svg="http://www.w3.org/2000/svg"
   xmlns="http://www.w3.org/2000/svg"
   xmlns:xlink="http://www.w3.org/1999/xlink"
   xmlns:sodipodi="http://sodipodi.sourceforge.net/DTD/sodipodi-0.dtd"
   xmlns:inkscape="http://www.inkscape.org/namespaces/inkscape"
   width="340"
   height="340"
   id="svg4201"
   sodipodi:version="0.32"
   inkscape:version="0.92.4 (f8dce91, 2019-08-02)"
   sodipodi:docname="heading_foreground.svg"
   inkscape:output_extension="org.inkscape.output.svg.inkscape"
   version="1.0">
  <defs
     id="defs4203">
    <linearGradient
       id="linearGradient5855">
      <stop
         style="stop-color:#ececec;stop-opacity:1;"
         offset="0"
         id="stop5857" />
      <stop
         style="stop-color:#616161;stop-opacity:1;"
         offset="1"
         id="stop5859" />
    </linearGradient>
    <linearGradient
       id="linearGradient5786">
      <stop
         style="stop-color:#363636;stop-opacity:1;"
         offset="0"
         id="stop5788" />
      <stop
         style="stop-color:#000000;stop-opacity:1;"
         offset="1"
         id="stop5790" />
    </linearGradient>
    <linearGradient
       id="linearGradient5747">
      <stop
         style="stop-color:#545454;stop-opacity:1;"
         offset="0"
         id="stop5749" />
      <stop
         id="stop5755"
         offset="0.5"
         style="stop-color:#ababab;stop-opacity:1;" />
      <stop
         style="stop-color:#656565;stop-opacity:1;"
         offset="1"
         id="stop5751" />
    </linearGradient>
    <linearGradient
       inkscape:collect="always"
       xlink:href="#linearGradient5747"
       id="linearGradient5753"
       x1="132.14786"
       y1="111.15554"
       x2="263.22894"
       y2="286.43082"
       gradientUnits="userSpaceOnUse" />
    <linearGradient
       inkscape:collect="always"
       xlink:href="#linearGradient5786"
       id="linearGradient5792"
       x1="280.22632"
       y1="115.96942"
       x2="191.42857"
       y2="187.36218"
       gradientUnits="userSpaceOnUse" />
    <radialGradient
       inkscape:collect="always"
       xlink:href="#linearGradient5855"
       id="radialGradient5861"
       cx="112.06957"
       cy="277.9437"
       fx="112.06957"
       fy="277.9437"
       r="30.441849"
       gradientUnits="userSpaceOnUse" />
  </defs>
  <sodipodi:namedview
     id="base"
     pagecolor="#ffffff"
     bordercolor="#666666"
     borderopacity="1.0"
     gridtolerance="10000"
     guidetolerance="10"
     objecttolerance="10"
     inkscape:pageopacity="0.0"
     inkscape:pageshadow="2"
     inkscape:zoom="2"
     inkscape:cx="158.04128"
     inkscape:cy="160.22741"
     inkscape:document-units="px"
     inkscape:current-layer="layer3"
     showgrid="false"
     showguides="true"
     inkscape:guide-bbox="true"
     inkscape:window-width="1371"
     inkscape:window-height="850"
     inkscape:window-x="0"
     inkscape:window-y="27"
     inkscape:window-maximized="1">
    <sodipodi:guide
       orientation="1,0"
       position="197.50061,988.00022"
       id="guide4772"
       inkscape:locked="false" />
    <sodipodi:guide
       orientation="0,1"
       position="77.137277,867.5"
       id="guide4774"
       inkscape:locked="false" />
  </sodipodi:namedview>
  <metadata
     id="metadata4206">
    <rdf:RDF>
      <cc:Work
         rdf:about="">
        <dc:format>image/svg+xml</dc:format>
        <dc:type
           rdf:resource="http://purl.org/dc/dcmitype/StillImage" />
        <dc:title></dc:title>
      </cc:Work>
    </rdf:RDF>
  </metadata>
  <g
     inkscape:groupmode="layer"
     id="layer3"
     inkscape:label="v"
     style="display:inline"
     transform="translate(-30.452878,-17.814455)">
    <path
       sodipodi:type="arc"
       style="fill:#262626;fill-opacity:1;fill-rule:evenodd;stroke:none;stroke-width:0.9329446;stroke-linecap:butt;stroke-linejoin:miter;stroke-miterlimit:4;stroke-dasharray:none;stroke-dashoffset:0;stroke-opacity:1;display:inline;opacity:0"
       id="path5798"
       sodipodi:cx="191.42857"
       sodipodi:cy="187.36218"
       sodipodi:rx="114.28571"
       sodipodi:ry="114.28571"
       d="M 305.71429,187.36218 A 114.28571,114.28571 0 1 1 77.14286,187.36218 A 114.28571,114.28571 0 1 1 305.71429,187.36218 z"
       transform="matrix(1.4616676,0,0,1.4616676,-79.352066,-86.046777)"
       inkscape:export-xdpi="114.94"
       inkscape:export-ydpi="114.94" />
    <path
       id="path4778"
       style="fill:none;fill-opacity:1;fill-rule:evenodd;stroke:#ff3506;stroke-width:2;stroke-linecap:butt;stroke-linejoin:miter;stroke-miterlimit:4;stroke-dasharray:none;stroke-dashoffset:0;stroke-opacity:1;display:inline"
       d="M 200.45288,260.80553 L 203.16177,253.84124 L 225.12833,263.88589 C 227.03295,264.83725 228.33805,264.53956 228.33805,262.63589 L 228.40255,256.61982 C 228.40255,250.22869 224.75105,247.90625 219.51131,243.70732 L 208.47788,235.31446 L 211.28639,196.92161 L 261.23772,213.1716 C 263.62163,213.95469 264.64806,212.98991 264.64806,211.20732 L 264.82432,201.9216 C 264.82432,194.61271 260.92135,191.45797 255.6207,187.81446 L 213.09186,157.27875 C 212.31569,139.15817 210.07741,119.6713 200.45288,103.52874 C 190.82836,119.6713 188.59008,139.15817 187.81391,157.27875 L 145.28507,187.81446 C 139.98442,191.45797 136.08145,194.61271 136.08145,201.9216 L 136.25771,211.20732 C 136.25771,212.98991 137.28414,213.95469 139.66805,213.1716 L 189.61938,196.92161 L 192.42789,235.31446 L 181.39446,243.70732 C 176.15472,247.90625 172.50322,250.22869 172.50322,256.61982 L 172.56772,262.63589 C 172.56772,264.53956 173.87282,264.83725 175.77744,263.88589 L 197.744,253.84124 L 200.45288,260.80553 z"
       sodipodi:nodetypes="ccccccccccccccccccccccccccc"
       inkscape:export-xdpi="114.94"
       inkscape:export-ydpi="114.94" />
    <path
       style="fill:none;fill-opacity:1;fill-rule:evenodd;stroke:#ff0606;stroke-width:2;stroke-linecap:butt;stroke-linejoin:miter;stroke-miterlimit:4;stroke-dasharray:none;stroke-dashoffset:0;stroke-opacity:1"
       d="M 200.45289,77.613064 L 200.45289,104.0033"
       id="path4785"
       inkscape:export-xdpi="114.94"
       inkscape:export-ydpi="114.94" />
    <path
       id="path5663"
       style="fill:#ff3506;fill-opacity:1;fill-rule:evenodd;stroke:none;stroke-width:1.85957992;stroke-linecap:butt;stroke-linejoin:miter;stroke-miterlimit:4;stroke-dashoffset:0;stroke-opacity:1"
       d="M 92.224506,187.81445 L 78.435924,192.73202 L 78.435924,182.8969 L 92.224506,187.81445 z M 308.48827,187.81445 L 322.27685,192.73202 L 322.27685,182.8969 L 308.48827,187.81445 z M 200.45289,296.69908 L 205.37046,310.48766 L 195.53534,310.48766 L 200.45289,296.69908 z M 123.83096,264.30201 L 117.55821,277.52926 L 110.60373,270.57478 L 123.83096,264.30201 z M 276.75253,111.38044 L 289.97978,105.10769 L 283.0253,98.153207 L 276.75253,111.38044 z M 123.49622,110.90921 L 110.26897,104.63646 L 117.22345,97.681977 L 123.49622,110.90921 z M 277.35304,264.76605 L 290.58029,271.0388 L 283.62581,277.99328 L 277.35304,264.76605 z"
       inkscape:export-xdpi="114.94"
       inkscape:export-ydpi="114.94" />
  </g>
</svg>
